<svg width="177" height="111" viewBox="439 248 177 111" xmlns="http://www.w3.org/2000/svg" xmlns:xlink="http://www.w3.org/1999/xlink"><g><g transform="translate(449.23175048828125, 258.1473754882812) rotate(0) scale(1.566823585946745 1.2975411706598161)  "><g clip-rule="evenodd" fill-rule="evenodd"><g><path d="m94.24 0.49333c-0.61 0.28-1.75 0.94-2.54 1.47-4.62 3.12-6.22 6.07-4.21 7.66 1.27 0.99 2.49 0.61 6.45-2.03 2.44-1.65 4.67-3.93 4.92-5.05 0.18-0.84-0.38-2.16-1.02-2.41-0.78-0.27-2.54-0.12-3.6 0.36z" fill="#ABB8C3" stroke="#000" stroke-width="10" vector-effect="non-scaling-stroke" stroke-opacity="0.28" fill-opacity="1" transform="scale(1 1)" data-target_data=""></path></g><g><path d="m9.72 4.8133c-1.35 0.56-1.4 1.9-0.13 4.04 1.55 2.64 4.44 4.9 6.7 5.25 1.7 0.28 2.79-1.45 1.93-3.02-0.94-1.78-4.87-5.41-6.62-6.14-1.04-0.44-1.12-0.44-1.88-0.13z" fill="#ABB8C3" stroke="#000" stroke-width="10" vector-effect="non-scaling-stroke" stroke-opacity="0.28" fill-opacity="1" transform="scale(1 1)" data-target_data=""></path></g><g><path d="m70.96 6.1033c-1.55 0.33-4.04 1.45-5.89 2.66-4.97 3.3-10.41 11.5-13.55 20.41-1.09 3.07-1.14 3.15-1.35 2.28-2.28-8.98-4.72-13.2-8.88-15.23-3.43-1.68-6.85-0.99-9.75 1.95-1.65 1.68-2.94 4.31-3.53 7.18-0.51 2.54-0.38 7.61 0.28 10.66 1.47 6.75 5.1 14.39 10.58 22.21 2.77 3.93 8.2 10.61 9.04 11.09 0.43 0.25 1.27 0.46 1.93 0.46 0.99 0 1.32-0.15 2.18-0.94 0.58-0.51 1.75-1.9 2.61-3.1 0.86-1.19 4.16-5.63 7.31-9.82 8.55-11.37 12.84-18.02 16.5-25.61 3.86-7.97 4.92-14.09 3.25-18.53-0.79-2.11-3.07-4.39-5.15-5.18-1.77-0.64-3.88-0.84-5.58-0.49zm3.71 4.95c3.98 2.03 3.05 8.55-2.82 19.77-3.25 6.22-5.86 10.28-13.73 21.32-2.89 4.04-5.91 8.35-6.73 9.57-0.81 1.24-1.55 2.23-1.65 2.23-0.2 0-6.09-7.84-7.79-10.41-3.22-4.82-5.56-9.39-7.06-13.81-3.07-9.01-2.59-16.62 1.24-18.96 0.99-0.61 1.7-0.61 2.92 0 2.82 1.45 4.85 5.94 7.51 16.6 1.6 6.42 1.7 6.73 2.46 7.01 1.32 0.48 2.03-0.38 2.34-2.74 0.23-1.85 4.06-11.68 6.37-16.4 4.16-8.5 8.45-13.17 13.32-14.49 1.26-0.35 2.55-0.22 3.62 0.31z" fill="#ABB8C3" stroke="#000" stroke-width="10" vector-effect="non-scaling-stroke" stroke-opacity="0.28" fill-opacity="1" transform="scale(1 1)" data-target_data=""></path></g><g><path d="m1.52 22.353c-1.09 0.43-1.52 1.01-1.52 2.03 0 0.79 0.15 1.07 0.84 1.6 1.37 1.04 3.5 1.52 6.02 1.32 3.78-0.28 5.08-0.86 5.08-2.31 0-1.17-0.84-1.8-3.17-2.41-2.2-0.54-6.13-0.66-7.25-0.23z" fill="#ABB8C3" stroke="#000" stroke-width="10" vector-effect="non-scaling-stroke" stroke-opacity="0.28" fill-opacity="1" transform="scale(1 1)" data-target_data=""></path></g><g><path d="m94.54 23.013c-2.56 0.33-5.66 1.73-6.5 2.89-0.71 0.99-0.63 2.28 0.18 3.05 0.56 0.51 0.86 0.61 2.23 0.56 2.49-0.08 4.67-0.56 6.65-1.45 1.9-0.89 2.89-1.88 2.89-2.87 0.01-1.9-1.87-2.67-5.45-2.18z" fill="#ABB8C3" stroke="#000" stroke-width="10" vector-effect="non-scaling-stroke" stroke-opacity="0.28" fill-opacity="1" transform="scale(1 1)" data-target_data=""></path></g><g><path d="m14.59 39.833c-2.81 0.64-7.28 4.17-7.64 5.97-0.38 2.13 1.7 3.05 4.14 1.83 3.15-1.6 6.42-4.72 6.42-6.14 0-1.33-1.27-2.04-2.92-1.66z" fill="#ABB8C3" stroke="#000" stroke-width="10" vector-effect="non-scaling-stroke" stroke-opacity="0.28" fill-opacity="1" transform="scale(1 1)" data-target_data=""></path></g><g><path d="m86.04 42.143c-1.68 0.66-2.31 2.41-1.37 3.73 1.37 1.95 8.76 3.63 10.99 2.46 1.37-0.69 1.47-2.41 0.23-3.6-2.03-1.95-7.72-3.42-9.85-2.59z" fill="#ABB8C3" stroke="#000" stroke-width="10" vector-effect="non-scaling-stroke" stroke-opacity="0.28" fill-opacity="1" transform="scale(1 1)" data-target_data=""></path></g></g></g></g><defs><style>@import url("https://www.dafontfree.net/embed/Y29taWMtc2Fucy1tcy1yZWd1bGFyJmRhdGEvNDAvYy8xMDA5MzQvQ09NSUMuVFRG");text {white-space: pre;};
</style></defs></svg>