<svg width="512" height="1075" viewBox="330 5 512 1075" xmlns="http://www.w3.org/2000/svg" xmlns:xlink="http://www.w3.org/1999/xlink"><defs><style>@import url("https://www.dafontfree.net/embed/Y29taWMtc2Fucy1tcy1yZWd1bGFyJmRhdGEvNDAvYy8xMDA5MzQvQ09NSUMuVFRG");
@import url("https://fonts.googleapis.com/css2?family=Roboto&amp;display=swap");
@import url("https://fonts.googleapis.com/css2?family=Roboto:wght@700&amp;display=swap");text {white-space: pre;};
</style></defs><rect fill="#ffffff" width="1153" height="1080"></rect><g><g transform="translate(424.25407445625154, 402.5129714835735)  rotate(0)  "><g><path d="M0 41.21253732152629 C-0.5867631429631738 89.624270647178, 1.4845571225683662 141.33783729789536, 0 199.19833831681078 M0 41.21253732152629 C1.0867353691228105 91.9956366151157, 3.5782494707472994 139.86102115970786, 0 199.19833831681078 M0 199.19833831681078 C88.2531120170889 201.8509317893376, 178.2153464412717 203.0750951337467, 325.4852858426436 199.19833831681078 M0 199.19833831681078 C66.74755270512459 198.62144490692796, 131.65737335860385 198.73216881987855, 325.4852858426436 199.19833831681078 M325.4852858426436 199.19833831681078 C326.4388867364255 157.24992057049906, 328.4247253582803 109.56299769262232, 325.4852858426436 41.21253732152628 M325.4852858426436 199.19833831681078 C322.758058866632 141.54354995761952, 321.9207470176339 84.68858040803815, 325.4852858426436 41.21253732152628 M325.4852858426436 41.21253732152628 C257.45074027887114 40.52624181175568, 189.72706301049044 40.94241756686509, 0 41.21253732152628 M325.4852858426436 41.21253732152628 C200.96325906152111 43.39737514395678, 76.32222714174819 43.66533852913629, 0 41.21253732152628 M0 41.21253732152628 C5.000659223513901e-16 41.21253732152628, 4.631791409819469e-16 41.212537321526284, 0 41.21253732152629 M0 41.21253732152628 C3.315780358862553e-16 41.212537321526284, 3.3604487472151247e-16 41.212537321526284, 0 41.21253732152629 M22.75207245097247 51.599943248262775 C24.5970142600582 52.951362919552615, 28.16857300996382 53.689571562573484, 29.458696765760138 56.54948699309062 M22.75207245097247 51.599943248262775 C23.815168455987145 53.37255460571161, 26.112455591043197 53.64564284526387, 29.458696765760138 56.54948699309062 M29.458696765760138 56.54948699309062 C28.43546469384257 57.444264651201046, 27.82754788114628 61.88566683510867, 22.752072450972467 61.50359895569519 M29.458696765760138 56.54948699309062 C32.895771836958936 57.83037002148976, 25.319877087696774 62.00879623399665, 22.752072450972467 61.50359895569519 M22.752072450972467 61.50359895569519 C16.932254140475123 58.947672980824386, 15.131187761128448 58.42950520005016, 16.045448136184795 56.54948699309062 M22.752072450972467 61.50359895569519 C16.653065213444933 63.91897630648305, 15.214020630503573 57.854942806688456, 16.045448136184795 56.54948699309062 M16.045448136184795 56.54948699309062 C14.496994545104851 54.97314080910402, 19.926604595059306 53.274377506716554, 22.752072450972467 51.59994324826278 M16.045448136184795 56.54948699309062 C19.439922249344114 56.936352142622866, 18.800884883362578 53.258174193907905, 22.752072450972467 51.59994324826278 M22.752072450972467 51.59994324826278 C22.752072450972467 51.59994324826278, 22.75207245097247 51.599943248262775, 22.75207245097247 51.599943248262775 M22.752072450972467 51.59994324826278 C22.752072450972467 51.59994324826278, 22.75207245097247 51.599943248262775, 22.75207245097247 51.599943248262775 M302.73451533281445 51.599943248262775 C304.2690094192268 49.32934175108223, 309.567192657963 55.9582507343741, 309.44113964760214 56.54948699309062 M302.73451533281445 51.599943248262775 C303.12175862335016 52.48617399137131, 306.5162636520067 52.164204218914904, 309.44113964760214 56.54948699309062 M309.44113964760214 56.54948699309062 C309.3536184528647 57.1440170117834, 304.55618843368643 59.59342910627452, 302.73451533281445 61.50359895569519 M309.44113964760214 56.54948699309062 C309.87969488243476 57.57934878977885, 304.6564440521637 59.13238862113645, 302.73451533281445 61.50359895569519 M302.73451533281445 61.50359895569519 C298.33045321810073 58.91499965170947, 295.9393609369596 59.25652635183124, 296.02789101802676 56.54948699309062 M302.73451533281445 61.50359895569519 C300.24422836359605 63.055047855839035, 296.10622247503636 61.22983085575452, 296.02789101802676 56.54948699309062 M296.02789101802676 56.54948699309062 C294.671625660084 56.09134257154184, 300.6263221129315 50.83833332036287, 302.73451533281445 51.59994324826278 M296.02789101802676 56.54948699309062 C296.79010773073304 51.839374871483244, 295.89347258452386 54.35874755333774, 302.73451533281445 51.59994324826278 M302.73451533281445 51.59994324826278 C302.73451533281445 51.59994324826278, 302.73451533281445 51.59994324826278, 302.73451533281445 51.599943248262775 M302.73451533281445 51.59994324826278 C302.73451533281445 51.59994324826278, 302.73451533281445 51.599943248262775, 302.73451533281445 51.599943248262775 M22.752072450972477 178.93059863655466 C27.447813871641976 179.1709757313997, 30.512969418106724 178.53732946865205, 29.458696765760152 183.88471059915923 M22.752072450972477 178.93059863655466 C25.314044735952614 180.80102687016395, 27.71148870708806 178.3619278865954, 29.458696765760152 183.88471059915923 M29.458696765760152 183.88471059915923 C27.627376455064613 186.39504417898374, 26.083124798302453 190.22880526646262, 22.75207245097248 188.83425434398706 M29.458696765760152 183.88471059915923 C29.495441586753103 184.26701591410915, 26.430751036851582 191.19496627142874, 22.75207245097248 188.83425434398706 M22.75207245097248 188.83425434398706 C21.304065104597967 189.90628420575743, 17.667982240560416 188.52456230046468, 16.045448136184806 183.88471059915923 M22.75207245097248 188.83425434398706 C20.888262751955327 189.61091979285922, 14.032407231655855 183.68330746838132, 16.045448136184806 183.88471059915923 M16.045448136184806 183.88471059915923 C18.98921453386596 183.10237187497262, 21.216376458504538 179.2417682574064, 22.75207245097248 178.93059863655466 M16.045448136184806 183.88471059915923 C14.065854663933207 184.29809035091606, 18.2429287238748 176.9461699454513, 22.75207245097248 178.93059863655466 M22.75207245097248 178.93059863655466 C22.75207245097248 178.93059863655466, 22.752072450972477 178.93059863655466, 22.752072450972477 178.93059863655466 M22.75207245097248 178.93059863655466 C22.75207245097248 178.93059863655466, 22.75207245097248 178.93059863655466, 22.752072450972477 178.93059863655466 M302.73451533281445 178.93059863655466 C305.0207623236572 180.4653535650045, 307.4078182378588 183.2843583261216, 309.44113964760214 183.88471059915923 M302.73451533281445 178.93059863655466 C309.70096336782365 179.54995652422573, 306.0772628058018 179.14309750228134, 309.44113964760214 183.88471059915923 M309.44113964760214 183.88471059915923 C307.0346182725584 188.86446702601629, 305.57581678822055 189.4635012076724, 302.73451533281445 188.83425434398706 M309.44113964760214 183.88471059915923 C309.4868293272058 188.2442859078316, 307.6130608945375 191.3737572326347, 302.73451533281445 188.83425434398706 M302.73451533281445 188.83425434398706 C299.99823700632027 187.7778028474677, 297.7267791193945 184.2083511066647, 296.02789101802676 183.88471059915923 M302.73451533281445 188.83425434398706 C296.465589327552 187.5417010246798, 295.1556913248764 184.3294219235448, 296.02789101802676 183.88471059915923 M296.02789101802676 183.88471059915923 C293.4854532385667 180.54053709261063, 298.87203994500464 177.27357570984665, 302.73451533281445 178.93059863655466 M296.02789101802676 183.88471059915923 C297.9324648012364 183.23567871927227, 302.25350052919254 176.7574350430098, 302.73451533281445 178.93059863655466 M302.73451533281445 178.93059863655466 C302.73451533281445 178.93059863655466, 302.73451533281445 178.93059863655466, 302.73451533281445 178.93059863655466 M302.73451533281445 178.93059863655466 C302.73451533281445 178.93059863655466, 302.73451533281445 178.93059863655466, 302.73451533281445 178.93059863655466" stroke="#000000" stroke-width="2" fill="none" vector-effect="non-scaling-stroke" data-shape-part="outline" stroke-opacity="1" fill-opacity="0.24"></path></g></g><g transform="translate(440.5283387483837, 426.5562229400383) rotate(0)"><text transform="translate(0, 84)" style="font-size: 24px; font-family: &quot;Comic Sans MS&quot;; fill: rgb(17, 17, 17); opacity: 1; stroke-width: 0; font-style: normal; font-weight: normal; text-decoration: none;"></text></g></g><g><g transform="translate(340.07437383389936, 318.65863268276985)  rotate(0)  "><g><path d="M-0.06966267470270396 0.11302942577749492 L491.2558954696589 -0.0735659008845687 L491.312882165187 575.0315164655971 L0.027743945084512237 575.1282757074165" stroke="none" stroke-width="0" fill="#616161" vector-effect="non-scaling-stroke" data-shape-part="fill" stroke-opacity="0.03" fill-opacity="0.03"></path><path d="M0 0 C152.78400079273263 0.00494509792046105, 305.47848213020575 -0.029960102306924592, 491.21248376420226 0 M0 0 C119.2062507921681 -0.12458244363949196, 238.36923241696482 -0.12174158945413217, 491.21248376420226 0 M491.21248376420226 0 C491.0401655180925 217.90838152007748, 490.9887204416269 435.6602238989917, 491.21248376420226 575.1003025329264 M491.21248376420226 0 C491.13906973154053 124.32380729974392, 491.1198859015177 248.73767231120087, 491.21248376420226 575.1003025329264 M491.21248376420226 575.1003025329264 C348.7094444563575 574.9600937387962, 206.20777184989618 574.9411991815524, 0 575.1003025329264 M491.21248376420226 575.1003025329264 C374.64235898394855 575.2680192491508, 258.14917933818924 575.2736988187884, 0 575.1003025329264 M0 575.1003025329264 C0.20932770721373378 441.7559103895336, 0.25858987562117397 308.4475345945176, 0 0 M0 575.1003025329264 C0.19743619694886752 439.4107661265888, 0.2066353167551572 303.7896921136467, 0 0" stroke="#000000" stroke-width="2" fill="none" vector-effect="non-scaling-stroke" data-shape-part="outline" stroke-opacity="1" fill-opacity="0.03"></path></g></g><g transform="translate(364.63499802210947, 347.41364780941615) rotate(0)"><text transform="translate(0, 247)" style="font-size: 24px; font-family: &quot;Comic Sans MS&quot;; fill: rgb(17, 17, 17); opacity: 1; stroke-width: 0; font-style: normal; font-weight: normal; text-decoration: none;"></text></g></g><g><g transform="translate(340.3540786429777, 14.97737740842986)  rotate(0)  "><g><path d="M0.48806650191545486 -0.5418860390782356 L490.6304376504019 -0.2815102055668831 L491.2322970769003 303.06131992526537 L0.27113501578569416 303.7448006171752" stroke="none" stroke-width="0" fill="#616161" vector-effect="non-scaling-stroke" data-shape-part="fill" stroke-opacity="0.1" fill-opacity="0.1"></path><path d="M0 0 C155.55738714433673 0.6560016745021117, 311.22772735520647 0.6943042719337514, 491.2114299959138 0 M0 0 C128.6771589976106 0.5269656301111435, 257.7428185525627 0.5592369003240031, 491.2114299959138 0 M491.2114299959138 0 C492.6081515884854 103.3992131625609, 491.8836047410218 206.5748290066984, 491.2114299959138 303.7864536259342 M491.2114299959138 0 C491.54221350261287 121.18015754911163, 491.3822484550669 241.558078752881, 491.2114299959138 303.7864536259342 M491.2114299959138 303.7864536259342 C328.46043860202 304.19388285746066, 165.6354586556514 304.22721952030736, 0 303.7864536259342 M491.2114299959138 303.7864536259342 C363.54310046044503 304.3564951842449, 236.15636746392232 304.08133461704915, 0 303.7864536259342 M0 303.7864536259342 C0.34850051209156324 226.8908497572231, 0.7665487617050204 151.3190190476678, 0 0 M0 303.7864536259342 C-0.8715063593217044 211.6982729909091, -0.6569282046938055 120.28929317013807, 0 0" stroke="#000000" stroke-width="2" fill="none" vector-effect="non-scaling-stroke" data-shape-part="outline" stroke-opacity="1" fill-opacity="0.1"></path></g></g><g transform="translate(364.9146501427734, 30.166700089726568) rotate(0)"><text transform="translate(0, 125)" style="font-size: 24px; font-family: &quot;Comic Sans MS&quot;; fill: rgb(17, 17, 17); opacity: 1; stroke-width: 0; font-style: normal; font-weight: normal; text-decoration: none;"></text></g></g><g><g transform="translate(455.01349519261544, 118.00338646380169)  rotate(0)  "><g><path d="M11.013122748359551 5.1413794670825546 C15.322214409697526 1.8879127792295325, 22.564522636663806 -1.192534799635381, 27.874434096866626 -0.765909829454607 C33.18434555706945 -0.33928485927383295, 39.4291289012909 3.7541120701969, 42.872591509576466 7.701129288167198 C46.31605411786203 11.648146506137497, 48.19989314273405 17.935578077992147, 48.53520974658002 22.916193478367184 C48.870526350426 27.89680887874222, 47.94266513088469 33.607744800308076, 44.884491132652315 37.58482169041743 C41.82631713441994 41.56189858052678, 35.46506213451801 45.1911203836358, 30.186165757185744 46.7786548190233 C24.907269379853485 48.366189254410806, 17.825243621125967 49.1705960584589, 13.211112868658756 47.11002830274245 C8.596982116191544 45.049460547026, 4.525551687274509 39.43146875358486, 2.5013812423824717 34.41524828472463 C0.4772107974904336 29.399027815864407, -2.3050465511474694 22.94410114315533, 1.066090199306526 17.012705489581084 C4.437226949760522 11.081309836006838, 17.289344683699145 1.2464676953273934, 22.728201745106443 -1.1731256367208438 C28.16705880651374 -3.592718968769081, 33.74267080135183 1.9100133093721752, 33.699232567750315 2.4951454972916594 M17.125530871918592 0.519432798926502 C21.224831047980654 -0.6059848922243722, 28.530045893006445 2.3307370233505673, 33.46567806330738 4.968684536362581 C38.401310233608314 7.6066320493745945, 44.645916857171194 11.973999004610281, 46.7393238937242 16.34711787699858 C48.8327309302772 20.72023674938688, 47.61621112322487 26.34021465870559, 46.026120282625385 31.20739777069238 C44.4360294420259 36.07458088267917, 41.01762359904373 42.929519044098754, 37.198778850127276 45.55021654891932 C33.37993410121082 48.17091405373989, 27.909220087193216 47.553138209235804, 23.11305178912668 46.93158279961582 C18.316883491060143 46.31002738999583, 12.515545954525098 45.166517555958315, 8.42176906172806 41.82088409119939 C4.327992168931023 38.47525062644046, -0.6289518795951151 31.88806974363369, -1.4496095676555463 26.857782011062255 C-2.2702672557159773 21.82749427849082, -0.23945516932123212 16.22828088835363, 3.497822933365473 11.639157695770793 C7.235101036052178 7.0500345031879545, 18.367074139408942 1.025075278542542, 20.974059048464685 -0.6769571444347768 C23.58104395752043 -2.3789895674120958, 19.39536203160753 0.8537024900279301, 19.139732387699926 1.4269631579068793" stroke="none" stroke-width="0" fill="#616161" vector-effect="non-scaling-stroke" data-shape-part="fill" stroke-opacity="0.26" fill-opacity="0.26"></path><path d="M37.624177136313065 5.402378169673721 C41.76291750766953 8.015567570505558, 44.87422474140634 13.281620309204126, 46.308865955113205 18.13699187962719 C47.743507168820074 22.992363450050252, 48.279399552553805 29.81839303174392, 46.23202441855427 34.5346075922121 C44.18464928455473 39.25082215268028, 38.88709912819105 44.43242055601482, 34.02461515111599 46.43427924243626 C29.162131174040923 48.436137928857704, 22.188771787365138 47.823313685316485, 17.057120556103882 46.54575971074077 C11.925469324842627 45.26820573616505, 6.295969470574612 42.81333057945212, 3.234707763548464 38.768955394981944 C0.17344605652231548 34.72458021051177, -1.7820364330991498 27.708627737065676, -1.3104496860530084 22.279508603919727 C-0.8388629390068669 16.850389470773777, 2.211893948008933 10.11372566526978, 6.064228245825312 6.194240596106244 C9.91656254364169 2.274755526942709, 15.06603090317125 -2.0023271918470575, 21.803556100845267 -1.2374018110614848 C28.541081298519284 -0.47247643027591213, 41.94474308362829 6.640328910963188, 46.489379431869416 10.78379288081968 C51.03401578011054 14.927256850676173, 49.85462345339254 23.1922681116544, 49.07137419029205 23.62338200807747 M24.132797509397065 -0.5640684322231841 C28.88744017868007 -1.1158634250203843, 34.344465286455296 -0.05619429634578266, 38.01636619187036 3.352686212368834 C41.688267097285426 6.761566721083451, 44.92412916882293 14.199856099181563, 46.16420294188747 19.889214620064514 C47.404276714952005 25.578573140947466, 47.6552647637329 32.75193572671925, 45.45680883025758 37.488837337666546 C43.258352896782256 42.22573894861384, 37.70914915113855 46.340718601344236, 32.97346734103553 48.310624285748275 C28.237785530932513 50.280529970152315, 21.940834954977312 51.08415362107252, 17.042717969639465 49.308271444090785 C12.144600984301618 47.53238926710905, 6.507891264885764 42.228812787934686, 3.5847654290084527 37.65533122385788 C0.6616395931311416 33.08184965978107, -1.2042409880797629 26.80171218208706, -0.49603704562440143 21.867382059629946 C0.21216689683096013 16.933051937172834, 3.5869589680382825 11.976011410243068, 7.833989083740622 8.04935048911521 C12.081019199442963 4.122689567987351, 22.186746176459206 -0.09266992090497084, 24.98614364858964 -1.6925834671372009 C27.785541120720072 -3.292497013369431, 25.027146636002847 -2.18684650157036, 24.63037391652322 -1.550130788278171" stroke="#000000" stroke-width="2" fill="none" vector-effect="non-scaling-stroke" data-shape-part="outline" stroke-opacity="1" fill-opacity="0.26"></path></g></g><g transform="translate(462.30895618193597, 125.2988474531222) rotate(0)"><text transform="translate(0, 5)" style="font-size: 24px; font-family: &quot;Comic Sans MS&quot;; fill: rgb(17, 17, 17); opacity: 1; stroke-width: 0; font-style: normal; font-weight: normal; text-decoration: none;"></text></g></g><g><g id="YsMAWQFmoLKX-LghP4msS" pointer-events="auto"><g><path data-shape-part="outline" class="" d="M492.983 122.197 C487.026598370543 131.30006199082706, 481.0701967410861 140.4031239816541, 477.726 145.514 M492.983 122.197 C488.6677184977398 128.7919674764502, 484.35243699547965 135.3869349529004, 477.726 145.514 M477.726 145.514 C472.91847790379336 152.0830270154586, 468.1109558075867 158.6520540309172, 465.45 162.288 M477.726 145.514 C473.3935509774048 151.4338843194047, 469.06110195480954 157.3537686388094, 465.45 162.288" stroke="#000000" stroke-width="2" stroke-opacity="1" fill="none" stroke-linecap="round" stroke-dashoffset="-3"></path></g><path d="M492.983,122.197L477.726,145.514L465.45,162.288" fill="none" fill-opacity="0" stroke="black" stroke-opacity="0" stroke-width="10" id="hit-YsMAWQFmoLKX-LghP4msS"></path></g></g><g><g id="goD4byx0SyxOr1L_O7lOQ" pointer-events="auto"><g><path data-shape-part="outline" class="" d="M463.794 123.615 C471.2767894482929 132.17064229690655, 478.7595788965858 140.72628459381312, 483.065 145.649 M463.794 123.615 C471.4739804149967 132.39610572694912, 479.1539608299933 141.17721145389825, 483.065 145.649 M483.065 145.649 C487.7118655797299 150.7929888006389, 492.3587311594598 155.93697760127782, 496.03 160.001 M483.065 145.649 C487.25753744533097 150.29005649173857, 491.450074890662 154.93111298347714, 496.03 160.001" stroke="#000000" stroke-width="2" stroke-opacity="1" fill="none" stroke-linecap="round" stroke-dashoffset="-3"></path></g><path d="M463.794,123.615L483.065,145.649L496.03,160.001" fill="none" fill-opacity="0" stroke="black" stroke-opacity="0" stroke-width="10" id="hit-goD4byx0SyxOr1L_O7lOQ"></path></g></g><g transform="translate(557.274550986631, 68.52443165430924) rotate(0)"><text transform="translate(0, 0)" style="font-size: 18px; font-family: Roboto; fill: rgb(17, 17, 17); opacity: 1; stroke-width: 0; font-style: normal; font-weight: normal; text-decoration: none;"><tspan dominant-baseline="text-before-edge" x="0" y="0">Home</tspan></text></g><g transform="translate(554.2353032160005, 118.00338646380169) rotate(0)"><text transform="translate(0, 0)" style="font-size: 18px; font-family: Roboto; fill: rgb(17, 17, 17); opacity: 1; stroke-width: 0; font-style: normal; font-weight: normal; text-decoration: none;"><tspan dominant-baseline="text-before-edge" x="0" y="0">Contact</tspan></text></g><g transform="translate(558.0438969660005, 165.86468373087126) rotate(0)"><text transform="translate(0, 0)" style="font-size: 18px; font-family: Roboto; fill: rgb(17, 17, 17); opacity: 1; stroke-width: 0; font-style: normal; font-weight: normal; text-decoration: none;"><tspan dominant-baseline="text-before-edge" x="0" y="0">Search</tspan></text></g><g transform="translate(523.4142919319502, 203.2556955414458) rotate(0)"><text transform="translate(0, 0)" style="font-size: 18px; font-family: Roboto; fill: rgb(17, 17, 17); opacity: 1; stroke-width: 0; font-style: normal; font-weight: normal; text-decoration: none;"><tspan dominant-baseline="text-before-edge" x="0" y="0">My Daily Quotes</tspan></text></g><g transform="translate(731.3371122271072, 885.4256022002544) rotate(0)"><text transform="translate(0, 0)" style="font-size: 6px; font-family: &quot;Comic Sans MS&quot;; fill: rgb(17, 17, 17); opacity: 1; stroke-width: 0; font-style: normal; font-weight: normal; text-decoration: none;"><tspan dominant-baseline="text-before-edge" x="0" y="0"> </tspan></text></g><g><g id="jpfSfFCOHAGzJhhnGJOGy" pointer-events="auto"><g><path data-shape-part="outline" class="" d="M766.24 66.735 C778.3763962093685 66.735, 790.5127924187369 66.735, 803.574 66.735 M766.24 66.735 C774.7448654717531 66.735, 783.2497309435062 66.735, 803.574 66.735" stroke="#000000" stroke-width="3" stroke-opacity="1" fill="none" stroke-linecap="round" stroke-dashoffset="-3"></path></g><path d="M766.24,66.735L803.574,66.735" fill="none" fill-opacity="0" stroke="black" stroke-opacity="0" stroke-width="10" id="hit-jpfSfFCOHAGzJhhnGJOGy"></path></g></g><g><g id="Oa2C7wfA2TP2_UN930lce" pointer-events="auto"><g><path data-shape-part="outline" class="" d="M767.24 79.735 C779.3763962093685 79.735, 791.5127924187369 79.735, 804.574 79.735 M767.24 79.735 C775.7448654717531 79.735, 784.2497309435062 79.735, 804.574 79.735" stroke="#000000" stroke-width="3" stroke-opacity="1" fill="none" stroke-linecap="round" stroke-dashoffset="-3"></path></g><path d="M767.24,79.735L804.574,79.735" fill="none" fill-opacity="0" stroke="black" stroke-opacity="0" stroke-width="10" id="hit-Oa2C7wfA2TP2_UN930lce"></path></g></g><g><g id="_wCTJ6krrZ7S8GIaUF513" pointer-events="auto"><g><path data-shape-part="outline" class="" d="M767.24 91.735 C779.3763962093685 91.735, 791.5127924187369 91.735, 804.574 91.735 M767.24 91.735 C775.7448654717531 91.735, 784.2497309435062 91.735, 804.574 91.735" stroke="#000000" stroke-width="3" stroke-opacity="1" fill="none" stroke-linecap="round" stroke-dashoffset="-3"></path></g><path d="M767.24,91.735L804.574,91.735" fill="none" fill-opacity="0" stroke="black" stroke-opacity="0" stroke-width="10" id="hit-_wCTJ6krrZ7S8GIaUF513"></path></g></g><g><g transform="translate(537.7763829964033, 261.5382640545036) rotate(0) scale(0.9220001220703125 0.5443657807583748)  "><g><path fill="#ABB8C3" stroke="#000000" stroke-linecap="round" stroke-linejoin="round" stroke-miterlimit="10" d="M 85 62.38 L 15 62.38 C 6.75 62.38 0 55.63 0 47.38 L 0 15 C 0 6.75 6.75 0 15 0 L 85 0 C 93.25 0 100 6.75 100 15 L 100 47.38 C 100 55.63 93.25 62.38 85 62.38 Z" stroke-width="2" vector-effect="non-scaling-stroke" stroke-opacity="1" fill-opacity="1" transform="scale(1 1)" data-target_data=""></path></g></g><g transform="translate(542.3863836067549, 264.2600930248529) rotate(0)"><text transform="translate(0, 2)" style="font-size: 24px; font-family: &quot;Comic Sans MS&quot;; fill: rgb(17, 17, 17); opacity: 1; stroke-width: 0; font-style: normal; font-weight: normal; text-decoration: none;"></text></g></g><g transform="translate(555.9334045175148, 268.86342793160355) rotate(0)"><text transform="translate(0, 0)" style="font-size: 15px; font-family: Roboto; fill: rgb(17, 17, 17); opacity: 1; stroke-width: 0; font-style: normal; font-weight: normal; text-decoration: none;"><tspan dominant-baseline="text-before-edge" x="0" y="0">Sign Up</tspan></text></g><g><g id="DZVqqbGbC44kIrl4mP3ak" pointer-events="auto"><g><path data-shape-part="outline" class="" d="M596.554 295.496 C596.7090227346063 295.36583363599897, 597.2236073053717 295.62475897436263, 597.706 295.496 M596.554 295.496 C596.8808278184712 295.5638962242842, 597.3833169848502 295.50208343608375, 597.706 295.496" stroke="#000000" stroke-width="2" stroke-opacity="1" fill="none" stroke-linecap="round" stroke-dashoffset="-3"></path></g><path d="M596.554,295.496L597.706,295.496" fill="none" fill-opacity="0" stroke="black" stroke-opacity="0" stroke-width="10" id="hit-DZVqqbGbC44kIrl4mP3ak"></path></g></g><g><g transform="translate(426.6829939002818, 547.8705783832721)  rotate(0)  "><g><path d="M2.8363319747149944 67.54478512911062 L-0.5459124930202961 333.59158823443653 L322.59749479729413 333.81043968154194 L320.77569802242994 71.48881505636432 L1.7227059714496136 71.70398150591116 M24.551392331739436 89.23249836676152 L26.486243132489506 87.29994464319762 L30.008953341524872 92.03695313217997 L24.50641244775449 102.30701760062902 L20.410895600934992 105.88733654122412 L18.15340289351979 99.87583545455664 L18.1766531679623 91.8862587619102 L18.94807782401915 87.60307789248046 L21.9131601005993 89.12446900122197 M298.34398746486613 84.91349561922581 L303.1419783718174 91.61700833242949 L304.22765778861645 94.44064478161692 L302.3433839541723 102.07992998370855 L297.9019007682414 103.51909368138372 L295.9396770732774 100.43809262523382 L292.12990046173354 96.40770248654246 L294.7954710833666 90.4444259445053 L299.86234092708537 87.35347040407689 M21.233343139310854 300.7518785306865 L28.491971911255476 300.60235051693587 L31.43301535515098 310.0140051037931 L29.783622149365733 311.8773220339376 L19.56632663311579 314.7706388242897 L16.043744709395142 313.33415563493554 L15.740211031197784 307.467467227664 L18.46341618773977 301.88203100742965 L20.249102607389467 298.4771621534282 M298.19881272312114 298.2554847309047 L306.304224179392 301.15291182579665 L304.81531690917615 306.413645544734 L304.06470834084206 313.51019688039605 L301.30540156360576 314.9779345997032 L297.6554812304613 310.78909011274163 L296.1197507444026 309.55028943130014 L293.6113694446458 304.0550212103334 L297.8965485095591 299.659631879037" stroke="none" stroke-width="0" fill="#616161" vector-effect="non-scaling-stroke" data-shape-part="fill" stroke-opacity="0.24" fill-opacity="0.24"></path><path d="M0 68.96403366161447 C-3.482960458098955 157.78011077715772, -1.0781821674452179 252.03224770185304, 0 333.3335388171494 M0 68.96403366161447 C2.627643136111108 134.1494101540152, 1.8118442999766846 201.37329763687245, 0 333.3335388171494 M0 333.3335388171494 C65.33688633768321 337.5043632199439, 127.78152626248526 336.4748281671652, 322.2940729311454 333.3335388171494 M0 333.3335388171494 C126.05201152963379 331.94815439942585, 253.06679319218546 333.7787234264003, 322.2940729311454 333.3335388171494 M322.2940729311454 333.3335388171494 C324.17577093033043 231.24416123570327, 322.27833699907666 133.08779370817732, 322.2940729311454 68.96403366161444 M322.2940729311454 333.3335388171494 C322.78010532375697 279.7250750742757, 323.07370997958714 225.4589963451766, 322.2940729311454 68.96403366161444 M322.2940729311454 68.96403366161444 C253.96686558047833 66.41307840351074, 187.99846523206375 67.25256117296814, 0 68.96403366161444 M322.2940729311454 68.96403366161444 C231.27780231635012 71.10336191686743, 139.57155968368917 69.81631208727052, 0 68.96403366161444 M0 68.96403366161444 C-7.230598588411705e-16 68.96403366161445, 1.6870976842649928e-15 68.96403366161445, 0 68.96403366161447 M0 68.96403366161444 C-1.1495712022123999e-15 68.96403366161445, -1.9493792674485472e-15 68.96403366161445, 0 68.96403366161447 M22.529000286032925 86.34606006779106 C28.538651362705654 86.39723063004972, 27.327561285513685 92.23288242598392, 29.169869658779177 94.62850331473112 M22.529000286032925 86.34606006779106 C28.080698632534272 83.06099252724857, 30.37810097148572 89.83406398208209, 29.169869658779177 94.62850331473112 M29.169869658779177 94.62850331473112 C26.975064792176735 100.80107532661586, 26.25918141755408 103.75705730824579, 22.529000286032925 102.91859090353906 M29.169869658779177 94.62850331473112 C27.308574936417887 95.96924799136995, 27.72188176236248 100.56540155450661, 22.529000286032925 102.91859090353906 M22.529000286032925 102.91859090353906 C17.96169852466472 103.43240666298975, 15.056651942034252 97.8666803709808, 15.888130913286671 94.62850331473112 M22.529000286032925 102.91859090353906 C21.02673807163872 104.05637864510376, 16.008200567749327 100.67039226345896, 15.888130913286671 94.62850331473112 M15.888130913286671 94.62850331473112 C18.725426200650425 92.88551430483676, 17.696846499435022 87.26433694852355, 22.529000286032925 86.34606006779107 M15.888130913286671 94.62850331473112 C13.87729605367759 91.29518977911539, 21.44166540312709 88.11763706827375, 22.529000286032925 86.34606006779107 M22.529000286032925 86.34606006779107 C22.529000286032925 86.34606006779107, 22.529000286032925 86.34606006779106, 22.529000286032925 86.34606006779106 M22.529000286032925 86.34606006779107 C22.529000286032925 86.34606006779107, 22.529000286032925 86.34606006779106, 22.529000286032925 86.34606006779106 M299.7663618214042 86.34606006779106 C306.4266928440227 85.368901376853, 304.08354176219206 87.48779825945712, 306.4072311941505 94.62850331473112 M299.7663618214042 86.34606006779106 C305.36658739077734 86.41856777096005, 307.03005170330056 86.96916550905772, 306.4072311941505 94.62850331473112 M306.4072311941505 94.62850331473112 C308.7218251455641 99.99141977947383, 304.61362686005276 104.51433825402368, 299.7663618214042 102.91859090353906 M306.4072311941505 94.62850331473112 C307.6607501631668 100.14094448141931, 300.4205144704957 100.38618194500764, 299.7663618214042 102.91859090353906 M299.7663618214042 102.91859090353906 C296.49491212512237 105.50744044690241, 292.24979672535324 99.47984205406338, 293.12549244865795 94.62850331473112 M299.7663618214042 102.91859090353906 C299.3308442981435 102.18936435024102, 291.4985347834509 101.71464448623539, 293.12549244865795 94.62850331473112 M293.12549244865795 94.62850331473112 C292.2228274231784 89.2612530448041, 296.2189249985743 85.83689499391082, 299.7663618214042 86.34606006779107 M293.12549244865795 94.62850331473112 C291.05647781118824 91.19913266809053, 298.706220657647 89.78565409207556, 299.7663618214042 86.34606006779107 M299.7663618214042 86.34606006779107 C299.7663618214042 86.34606006779107, 299.7663618214042 86.34606006779107, 299.7663618214042 86.34606006779106 M299.7663618214042 86.34606006779107 C299.7663618214042 86.34606006779107, 299.7663618214042 86.34606006779106, 299.7663618214042 86.34606006779106 M22.529000286032932 299.41800795212924 C26.64666370305366 302.4116721956182, 31.568570532342456 301.8383649316427, 29.169869658779188 307.70809554093717 M22.529000286032932 299.41800795212924 C28.951469621277816 296.6981507938478, 30.1769856727403 305.5456070761007, 29.169869658779188 307.70809554093717 M29.169869658779188 307.70809554093717 C29.32453778030282 314.5167949538567, 24.268018499660922 316.32501907645104, 22.529000286032936 315.9905387878772 M29.169869658779188 307.70809554093717 C28.698222039248105 311.4296585017704, 24.404339843328728 319.1925992650756, 22.529000286032936 315.9905387878772 M22.529000286032936 315.9905387878772 C19.607125415793984 313.98462899027703, 16.51281011464427 309.9259592633583, 15.888130913286684 307.70809554093717 M22.529000286032936 315.9905387878772 C16.383699856280714 314.3094457251796, 12.941420596152348 312.18251213970416, 15.888130913286684 307.70809554093717 M15.888130913286684 307.70809554093717 C13.198251239557761 300.9280771937963, 18.756770007323116 296.8251576034475, 22.529000286032936 299.41800795212924 M15.888130913286684 307.70809554093717 C15.601962077406245 304.8539309779924, 20.244786936241777 297.99033343606925, 22.529000286032936 299.41800795212924 M22.529000286032936 299.41800795212924 C22.529000286032936 299.41800795212924, 22.529000286032932 299.41800795212924, 22.529000286032932 299.41800795212924 M22.529000286032936 299.41800795212924 C22.529000286032936 299.41800795212924, 22.529000286032932 299.41800795212924, 22.529000286032932 299.41800795212924 M299.7663618214042 299.41800795212924 C300.9063101038043 301.1244089214254, 307.3204235065794 300.8546104159948, 306.4072311941505 307.70809554093717 M299.7663618214042 299.41800795212924 C302.952472591557 297.3338552337263, 309.20336458143504 302.80323477189955, 306.4072311941505 307.70809554093717 M306.4072311941505 307.70809554093717 C306.08059836562376 313.63863507321855, 301.8497817522182 314.94030936060784, 299.7663618214042 315.9905387878772 M306.4072311941505 307.70809554093717 C304.4144860874082 309.43285332861177, 306.85918783771683 315.58146246502486, 299.7663618214042 315.9905387878772 M299.7663618214042 315.9905387878772 C298.1623345606852 315.8065881281936, 293.53971802052183 315.1188099723198, 293.12549244865795 307.70809554093717 M299.7663618214042 315.9905387878772 C296.0321195135716 316.1960489077338, 292.20100720748377 312.7091538125538, 293.12549244865795 307.70809554093717 M293.12549244865795 307.70809554093717 C292.1053433190193 302.49117097526755, 298.094056941521 298.3240843622137, 299.7663618214042 299.41800795212924 M293.12549244865795 307.70809554093717 C293.636931875078 304.20236048500954, 295.72288169576655 301.6237965505693, 299.7663618214042 299.41800795212924 M299.7663618214042 299.41800795212924 C299.7663618214042 299.41800795212924, 299.7663618214042 299.41800795212924, 299.7663618214042 299.41800795212924 M299.7663618214042 299.41800795212924 C299.7663618214042 299.41800795212924, 299.7663618214042 299.41800795212924, 299.7663618214042 299.41800795212924" stroke="#000000" stroke-width="2" fill="none" vector-effect="non-scaling-stroke" data-shape-part="outline" stroke-opacity="1" fill-opacity="0.24"></path></g></g><g transform="translate(442.79769754683906, 588.1039566351911) rotate(0)"><text transform="translate(0, 149)" style="font-size: 24px; font-family: &quot;Comic Sans MS&quot;; fill: rgb(17, 17, 17); opacity: 1; stroke-width: 0; font-style: normal; font-weight: normal; text-decoration: none;"></text></g></g><g transform="translate(474.0431981819502, 724.8221763266122) rotate(0)"><text transform="translate(0, 0)" style="font-size: 20px; font-family: Roboto; fill: rgb(17, 17, 17); opacity: 1; stroke-width: 0; font-style: normal; font-weight: bold; text-decoration: none;"><tspan dominant-baseline="text-before-edge" x="29.28385353088379" y="0">Actual Quote from </tspan><tspan dominant-baseline="text-before-edge" x="198.69790649414062" y="0">
</tspan><tspan dominant-baseline="text-before-edge" x="21.419269561767578" y="24.16666603088379">Zen Quotes API here</tspan></text></g><g transform="translate(523.4142919319502, 670.9447244771247) rotate(0)"><text transform="translate(0, 0)" style="font-size: 24px; font-family: Roboto; fill: rgb(17, 17, 17); opacity: 1; stroke-width: 0; font-style: normal; font-weight: bold; text-decoration: none;"><tspan dominant-baseline="text-before-edge" x="0" y="0">Energizer#1</tspan></text></g><g transform="translate(485.81012780841496, 514.5372463215045) rotate(0)"><text transform="translate(0, 0)" style="font-size: 28px; font-family: Roboto; fill: rgb(17, 17, 17); opacity: 1; stroke-width: 0; font-style: normal; font-weight: bold; text-decoration: none;"><tspan dominant-baseline="text-before-edge" x="0.2604166567325592" y="0">My Daily Quotes</tspan></text></g><g transform="translate(534.0197606819502, 478.60672072415036) rotate(0)"><text transform="translate(0, 0)" style="font-size: 19px; font-family: Roboto; fill: rgb(17, 17, 17); opacity: 1; stroke-width: 0; font-style: normal; font-weight: bold; text-decoration: none;"><tspan dominant-baseline="text-before-edge" x="0" y="0">Current Date</tspan></text></g><g><g transform="translate(340.2687385028976, 893.7589352156963) rotate(0) scale(4.917892707376327 1.9122417962060332)  "><g><rect fill="#616161" stroke-width="2" stroke="#000000" x="0" y="0" width="100" height="100" vector-effect="non-scaling-stroke" stroke-opacity="1" fill-opacity="0.1" transform="scale(1 1)" data-target_data=""></rect></g></g><g transform="translate(364.8582020397792, 903.3201441967265) rotate(0)"><text transform="translate(0, 74)" style="font-size: 24px; font-family: &quot;Comic Sans MS&quot;; fill: rgb(17, 17, 17); opacity: 1; stroke-width: 0; font-style: normal; font-weight: normal; text-decoration: none;"></text></g></g><g transform="translate(419.3756440276479, 950.2043609024628) rotate(0)"><text transform="translate(0, 0)" style="font-size: 25px; font-family: Roboto; fill: rgb(17, 17, 17); opacity: 1; stroke-width: 0; font-style: normal; font-weight: bold; text-decoration: none;"><tspan dominant-baseline="text-before-edge" x="34.62239456176758" y="0">©2024 Quote Vitamins</tspan></text></g><g transform="translate(503.64990178808546, 997.7043189407929) rotate(0)"><text transform="translate(0, 0)" style="font-size: 19px; font-family: Roboto; fill: rgb(17, 17, 17); opacity: 1; stroke-width: 0; font-style: normal; font-weight: normal; text-decoration: none;"><tspan dominant-baseline="text-before-edge" x="0.2604166567325592" y="0">Social Media links</tspan><tspan dominant-baseline="text-before-edge" x="152.734375" y="0">
</tspan><tspan dominant-baseline="text-before-edge" x="42.66926956176758" y="23.333332061767578">or icons</tspan></text></g><g transform="translate(550.1003499763838, 347.51848305605904) rotate(0)"><text transform="translate(0, 0)" style="font-size: 22px; font-family: Roboto; fill: rgb(17, 17, 17); opacity: 1; stroke-width: 0; font-style: normal; font-weight: normal; text-decoration: none;"><tspan dominant-baseline="text-before-edge" x="0" y="0">Search</tspan></text></g><g><g transform="translate(425.45942965702875, 388.02235442111083) rotate(0) scale(3.251675370498427 0.44653840705685355)  "><g><rect fill="#8ED1FC" stroke-width="2" stroke="#000000" x="0" y="0" width="100" height="100" vector-effect="non-scaling-stroke" stroke-opacity="1" fill-opacity="1" transform="scale(1 1)" data-target_data=""></rect></g></g><g transform="translate(441.71780650952087, 390.2550464563951) rotate(0)"><text transform="translate(0, 8)" style="font-size: 24px; font-family: &quot;Comic Sans MS&quot;; fill: rgb(17, 17, 17); opacity: 1; stroke-width: 0; font-style: normal; font-weight: normal; text-decoration: none;"></text></g></g></svg>