<svg width="1151" height="1080" viewBox="0 0 1151 1080" xmlns="http://www.w3.org/2000/svg" xmlns:xlink="http://www.w3.org/1999/xlink"><defs><style>@import url("https://www.dafontfree.net/embed/Y29taWMtc2Fucy1tcy1yZWd1bGFyJmRhdGEvNDAvYy8xMDA5MzQvQ09NSUMuVFRG");
@import url("https://fonts.googleapis.com/css2?family=Roboto&amp;display=swap");
@import url("https://fonts.googleapis.com/css2?family=Roboto:wght@700&amp;display=swap");text {white-space: pre;};
</style></defs><rect fill="#ffffff" width="1153" height="1080"></rect><g><g transform="translate(12.28562398391893, 99.31625995817762)  rotate(0)  "><g><path d="M-2.7075820863246918 0.30511102080345154 L1126.4428372355712 -0.09314623475074768 L1126.1668543788207 839.3058556460743 L-0.6732259690761566 840.0767268084888" stroke="none" stroke-width="0" fill="#616161" vector-effect="non-scaling-stroke" data-shape-part="fill" stroke-opacity="0.03" fill-opacity="0.03"></path><path d="M0 0 C328.93638191027304 -3.8595503157729016, 657.4285316070489 -4.877743751441847, 1128.428752032162 0 M0 0 C374.8045203415695 1.6722194601395337, 750.7709138508923 1.9788656164505687, 1128.428752032162 0 M1128.428752032162 0 C1127.4135683965503 289.45546654453966, 1128.4699393224537 581.439606487574, 1128.428752032162 841.3674800836449 M1128.428752032162 0 C1132.158315544568 284.6286992675253, 1131.449816971265 569.3442059588806, 1128.428752032162 841.3674800836449 M1128.428752032162 841.3674800836449 C773.440290107055 846.0090780761582, 420.518390798773 847.2403719451768, 0 841.3674800836449 M1128.428752032162 841.3674800836449 C739.1632846726809 847.3138130336808, 348.8490867669637 847.9529421001481, 0 841.3674800836449 M0 841.3674800836449 C-2.0849213065589 556.1010932578594, -0.3753033103430795 269.01453568384017, 0 0 M0 841.3674800836449 C0.140166668326555 608.5123976894533, 0.6759429973670824 376.1922081225344, 0 0" stroke="#000000" stroke-width="2" fill="none" vector-effect="non-scaling-stroke" data-shape-part="outline" stroke-opacity="1" fill-opacity="0.03"></path></g></g><g transform="translate(68.70706158552703, 141.38463396235986) rotate(0)"><text transform="translate(0, 367)" style="font-size: 24px; font-family: &quot;Comic Sans MS&quot;; fill: rgb(17, 17, 17); opacity: 1; stroke-width: 0; font-style: normal; font-weight: normal; text-decoration: none;"></text></g></g><g><g transform="translate(10.178226202914402, -0.07233032341628132)  rotate(0)  "><g><path d="M-0.10560370050370693 -0.19622701443731783 L1128.7545381283921 -0.17934887446463108 L1128.6792327499552 83.54900585924779 L-0.4961804803460836 83.06631048237477" stroke="none" stroke-width="0" fill="#616161" vector-effect="non-scaling-stroke" data-shape-part="fill" stroke-opacity="0.1" fill-opacity="0.1"></path><path d="M0 0 C379.55191747767793 0.3177155000558317, 758.8327264378581 0.36467174833921795, 1128.428752032162 0 M0 0 C385.61783338075793 -1.0537777403251842, 771.1295096886588 -0.9400951817886547, 1128.428752032162 0 M1128.428752032162 0 C1129.2665230325708 25.05544369805636, 1128.4443218878757 50.86369582951133, 1128.428752032162 82.99427726817821 M1128.428752032162 0 C1128.4986970606076 23.90214334942682, 1128.6366545322167 48.08436995003935, 1128.428752032162 82.99427726817821 M1128.428752032162 82.99427726817821 C787.4234327578982 83.4622026383636, 445.776577195522 83.35760828850246, 0 82.99427726817821 M1128.428752032162 82.99427726817821 C853.8442125281773 84.31180791816861, 579.2185716792943 84.54636587343366, 0 82.99427726817821 M0 82.99427726817821 C0.13905886415851193 61.95385600812796, -0.4637994765816919 40.87348288084001, 0 0 M0 82.99427726817821 C-0.1502783952131795 56.4774242902054, -0.19441053847222797 29.461358940115833, 0 0" stroke="#000000" stroke-width="2" fill="none" vector-effect="non-scaling-stroke" data-shape-part="outline" stroke-opacity="1" fill-opacity="0.1"></path></g></g><g transform="translate(66.5996638045225, 4.0773835399926295) rotate(0)"><text transform="translate(0, 25)" style="font-size: 24px; font-family: &quot;Comic Sans MS&quot;; fill: rgb(17, 17, 17); opacity: 1; stroke-width: 0; font-style: normal; font-weight: normal; text-decoration: none;"></text></g></g><g><g transform="translate(133.2297060816747, -0.35312160807230697)  rotate(0)  "><g><path d="M64.48293591074373 8.932482525450425 C70.36537788030017 12.496926612924804, 74.4665152752397 18.329467854829335, 76.86090308150014 25.238681333035913 C79.25529088776058 32.147894811242494, 79.9469450449749 43.238644509326974, 78.84926274830639 50.38776339468989 C77.75158045163788 57.53688228005281, 75.31562683796636 62.97188166863829, 70.27480930148909 68.1333946452134 C65.23399176501181 73.29490762178851, 55.67243418391937 79.65909374642997, 48.604357529442744 81.35684125414053 C41.53628087496612 83.0545887618511, 34.774604000731856 80.96171980630898, 27.866349374629326 78.31987969147673 C20.958094748526793 75.67803957664448, 11.740142006843014 71.27625394817147, 7.154829772827554 65.50580056514701 C2.5695175388120948 59.735347182122545, 0.74462622181073 51.22479258796984, 0.3544759705365692 43.69715939332994 C-0.0356742807375916 36.16952619869004, 1.44761799717473 26.8512657420988, 4.813928265182589 20.340001397307617 C8.18023853319045 13.828737052516434, 14.311991251125828 7.8529556109348935, 20.552337578583725 4.62957332458285 C26.79268390604162 1.4061910382308072, 33.907534410729895 -0.20442933129174468, 42.256006229929966 0.9997076791953603 C50.60447804913004 2.203844689682465, 65.3576574373732 8.955752185263854, 70.64316849378415 11.85439538750548 C75.92867955019508 14.753038589747106, 74.75310189389619 17.887845327126122, 73.96907256839563 18.39156689264512 M38.43600042813456 -0.7768121245687141 C45.619359627577644 -1.1762025407117978, 55.54456153612256 3.5939160394806215, 62.248581586170914 7.316539979572191 C68.95260163621927 11.03916391966376, 75.91559745430288 15.265207757625639, 78.66012072842472 21.558931515980703 C81.40464400254655 27.852655274335767, 80.22523370642247 37.226247057041654, 78.71572123090186 45.07888252970258 C77.20620875538125 52.93151800236351, 74.29262429026437 62.75271607802272, 69.60304587530102 68.67474435194627 C64.91346746033767 74.59677262586983, 57.1184924499946 78.97693809970798, 50.57825074112176 80.6110521732439 C44.038009032248915 82.24516624677983, 37.1569309124464 80.4210568617676, 30.361595622063973 78.47942879316187 C23.566260331681544 76.53780072455615, 14.457528668852362 74.35804671099737, 9.80623899882719 68.96128376160954 C5.154949328802018 63.5645208122217, 3.470558064278613 53.49651047478023, 2.4538576019129366 46.09885109683486 C1.43715713954726 38.7011917188895, 1.2443051622026893 31.108661049374426, 3.706036224633131 24.575327493937333 C6.1677672870635725 18.04199393850024, 11.198496866154482 10.635787628007597, 17.224243976495586 6.898849764212301 C23.24999108683669 3.161911900417005, 35.78688674416291 3.0687084440527954, 39.860518886679756 2.153700311165558 C43.9341510291966 1.2386921782783205, 41.86135948531013 1.413300393481677, 41.66603683159662 1.408800966888876" stroke="none" stroke-width="0" fill="#616161" vector-effect="non-scaling-stroke" data-shape-part="fill" stroke-opacity="0.26" fill-opacity="0.26"></path><path d="M64.90077446390075 7.2080531581345895 C70.80447086041559 11.049188768280132, 75.08194357165692 19.382315522414753, 77.60816555858798 26.293253627888408 C80.13438754551905 33.20419173336206, 81.28921579578596 41.706310409541324, 80.05810638548714 48.67368179097651 C78.82699697518831 55.641053172411695, 75.02733802560121 62.730911737143074, 70.22150909679506 68.09748191649953 C65.41568016798891 73.46405209585599, 58.54382129070469 79.03262213351377, 51.22313281265028 80.87310286711528 C43.90244433459586 82.71358360071679, 33.28269918623563 81.66167853706563, 26.29737822846857 79.14036631810859 C19.312057270701505 76.61905409915155, 13.612960720720617 71.37592764461199, 9.311207066047892 65.74522955337306 C5.009453411375167 60.11453146213414, 1.0300024560949175 52.670431934878366, 0.4868563004322226 45.35617777067501 C-0.05628985523047214 38.041923606471656, 2.5648334717740635 28.509072503280084, 6.052330132071724 21.85970456815294 C9.539826792369384 15.210336633025793, 15.569806630930241 9.076521785175112, 21.411836262218184 5.459970159912146 C27.253865893506127 1.8434185346491798, 32.483245569130666 -1.530040508701503, 41.104507919799374 0.16039481657514187 C49.72577027046808 1.8508301418517867, 67.04757606577442 11.525748502869218, 73.13941036623045 15.602582111572016 C79.23124466668648 19.67941572027481, 78.49091105915532 24.097219004707867, 77.65551372253553 24.621396468791925 M47.961715619902506 -0.3980338517928388 C55.285364212166414 0.7018115327611731, 65.16706820432552 6.484223556147266, 70.82395146988888 11.890275021286378 C76.48083473545225 17.29632648642549, 80.83089947943856 24.822611613689595, 81.90301521328267 32.038274939041834 C82.97513094712679 39.25393826439407, 80.47190961539519 48.57018211316188, 77.25664587295361 55.18425497339981 C74.04138213051203 61.79832783363774, 68.43875543424896 67.31720358466588, 62.61143275863322 71.72271210046942 C56.78411008301748 76.12822061627297, 48.94563275135718 81.15316630782519, 42.29270981925915 81.61730606822111 C35.63978688716112 82.08144582861703, 29.12199317006658 78.02256896486143, 22.69389516604505 74.50755066284492 C16.265797162023517 70.9925323608284, 7.603434717777191 66.43146900024914, 3.7241217951299532 60.52719625612205 C-0.1551911275172846 54.62292351199496, -1.1978595665443073 46.12916671348518, -0.5819823698383786 39.08191419808237 C0.033894826867549965 32.03466168267956, 2.846980277878326 24.04415414346955, 7.419384975365524 18.243681163705176 C11.991789672852722 12.4432081839408, 20.050151598116038 6.8989719297139, 26.852445815084813 4.279076319496113 C33.65474003205359 1.6591807092783264, 44.53592082266165 2.888490548914929, 48.233150277178176 2.5243075023984574 C51.9303797316947 2.1601244558819857, 48.816228133502406 2.0716378698627125, 49.035822542183936 2.093978040397282" stroke="#000000" stroke-width="2" fill="none" vector-effect="non-scaling-stroke" data-shape-part="outline" stroke-opacity="1" fill-opacity="0.26"></path></g></g><g transform="translate(145.35653973238877, 11.77371204264178) rotate(0)"><text transform="translate(0, 16)" style="font-size: 24px; font-family: &quot;Comic Sans MS&quot;; fill: rgb(17, 17, 17); opacity: 1; stroke-width: 0; font-style: normal; font-weight: normal; text-decoration: none;"></text></g></g><g><g id="_4VDIrzrAqOQfb2n2XarJ" pointer-events="auto"><g><path data-shape-part="outline" class="" d="M196.345 6.617 C186.37680161205185 21.72175054359902, 176.40860322410373 36.82650108719804, 170.812 45.307 M196.345 6.617 C189.123260300373 17.560058355013844, 181.901520600746 28.503116710027687, 170.812 45.307 M170.812 45.307 C162.88757758091066 56.25355080100745, 154.96315516182128 67.20010160201491, 150.577 73.259 M170.812 45.307 C163.67065868587375 55.17182690449506, 156.52931737174745 65.03665380899012, 150.577 73.259" stroke="#000000" stroke-width="2" stroke-opacity="1" fill="none" stroke-linecap="round" stroke-dashoffset="-3"></path></g><path d="M196.345,6.617L170.812,45.307L150.577,73.259" fill="none" fill-opacity="0" stroke="black" stroke-opacity="0" stroke-width="10" id="hit-_4VDIrzrAqOQfb2n2XarJ"></path></g></g><g><g id="jf_Kn8MtmU9IgLfBb-zUP" pointer-events="auto"><g><path data-shape-part="outline" class="" d="M147.825 8.974 C160.29657460898346 23.21813098029047, 172.76814921796694 37.462261960580946, 179.944 45.658 M147.825 8.974 C160.62523304183892 23.59350088442415, 173.42546608367786 38.2130017688483, 179.944 45.658 M179.944 45.658 C187.6374029825609 54.18758789559678, 195.33080596512184 62.71717579119355, 201.409 69.456 M179.944 45.658 C186.88521220702117 53.35364258572981, 193.82642441404238 61.049285171459616, 201.409 69.456" stroke="#000000" stroke-width="2" stroke-opacity="1" fill="none" stroke-linecap="round" stroke-dashoffset="-3"></path></g><path d="M147.825,8.974L179.944,45.658L201.409,69.456" fill="none" fill-opacity="0" stroke="black" stroke-opacity="0" stroke-width="10" id="hit-jf_Kn8MtmU9IgLfBb-zUP"></path></g></g><g><g transform="translate(10.178226202914402, 957.078053055238)  rotate(0)  "><g><path d="M1.696273379959166 -1.1876759910956025 L1128.1209858563332 -0.18107343558222055 L1129.8329430427937 122.69855146714997 L-0.980141437612474 120.58694227644753" stroke="none" stroke-width="0" fill="#616161" vector-effect="non-scaling-stroke" data-shape-part="fill" stroke-opacity="0.1" fill-opacity="0.1"></path><path d="M0 0 C323.37655040482923 -3.802090382292456, 646.5926826482812 -4.824767148211188, 1128.428752032162 0 M0 0 C254.52707297994715 -6.4361660595833605, 509.2479391984075 -6.26034927925461, 1128.428752032162 0 M1128.428752032162 0 C1127.0355634154107 37.956183952363915, 1128.6987707377698 75.72587099781401, 1128.428752032162 122.99427726817828 M1128.428752032162 0 C1125.5095459985325 29.542112233714413, 1126.7706411498377 61.359592357447795, 1128.428752032162 122.99427726817828 M1128.428752032162 122.99427726817828 C712.9981322636478 120.13848466732264, 298.50601289092344 121.48956202127695, 0 122.99427726817828 M1128.428752032162 122.99427726817828 C685.9559191124222 126.98674333915997, 243.30180350679888 126.64004463181782, 0 122.99427726817828 M0 122.99427726817828 C-3.435998740561856 91.47704935752623, 1.5880808504739867 65.58533047705981, 0 0 M0 122.99427726817828 C-1.0866444538317683 83.93361272379246, 0.41245633559598904 44.316921426834156, 0 0" stroke="#000000" stroke-width="2" fill="none" vector-effect="non-scaling-stroke" data-shape-part="outline" stroke-opacity="1" fill-opacity="0.1"></path></g></g><g transform="translate(66.5996638045225, 963.2277669186469) rotate(0)"><text transform="translate(0, 43)" style="font-size: 24px; font-family: &quot;Comic Sans MS&quot;; fill: rgb(17, 17, 17); opacity: 1; stroke-width: 0; font-style: normal; font-weight: normal; text-decoration: none;"></text></g></g><g transform="translate(266.00532236166475, 27.258142279789038) rotate(0)"><text transform="translate(0, 0)" style="font-size: 24px; font-family: Roboto; fill: rgb(17, 17, 17); opacity: 1; stroke-width: 0; font-style: normal; font-weight: normal; text-decoration: none;"><tspan dominant-baseline="text-before-edge" x="0" y="0">Home</tspan></text></g><g transform="translate(394.4105398329103, 27.986324212199424) rotate(0)"><text transform="translate(0, 0)" style="font-size: 24px; font-family: Roboto; fill: rgb(17, 17, 17); opacity: 1; stroke-width: 0; font-style: normal; font-weight: normal; text-decoration: none;"><tspan dominant-baseline="text-before-edge" x="0" y="0">Contact</tspan></text></g><g transform="translate(215.70353876835077, 145.14261095878828) rotate(0)"><text transform="translate(0, 0)" style="font-size: 24px; font-family: Roboto; fill: rgb(17, 17, 17); opacity: 1; stroke-width: 0; font-style: normal; font-weight: normal; text-decoration: none;"><tspan dominant-baseline="text-before-edge" x="0" y="0">Search</tspan></text></g><g transform="translate(528.2108541340966, 27.986324212199424) rotate(0)"><text transform="translate(0, 0)" style="font-size: 24px; font-family: Roboto; fill: rgb(17, 17, 17); opacity: 1; stroke-width: 0; font-style: normal; font-weight: normal; text-decoration: none;"><tspan dominant-baseline="text-before-edge" x="0" y="0">Search</tspan></text></g><g><g transform="translate(313.3053254740488, 182.55059862196407)  rotate(0)  "><g><path d="M0 42.44448011925976 C4.029075414522455 81.18113272293792, 1.635718405826853 118.09614657018443, 0 205.15286026956835 M0 42.44448011925976 C-3.5663115870401954 76.85048775327432, -1.826372746770153 111.68551284586559, 0 205.15286026956835 M0 205.15286026956835 C199.53690584448705 205.468499889606, 399.3648276868757 205.83155844473217, 518.1398504551869 205.15286026956835 M0 205.15286026956835 C125.8247006923121 207.48514781024525, 252.75921166672794 207.64989014294216, 518.1398504551869 205.15286026956835 M518.1398504551869 205.15286026956835 C516.9810122687039 160.80090385476717, 518.4612228411851 111.64155461086821, 518.1398504551869 42.444480119259744 M518.1398504551869 205.15286026956835 C518.6851023123219 154.60532149210016, 518.1801366344645 103.15902186362501, 518.1398504551869 42.444480119259744 M518.1398504551869 42.444480119259744 C362.9457182884951 44.28270890955091, 207.26832884337574 45.004629006425155, 0 42.444480119259744 M518.1398504551869 42.444480119259744 C373.462743325195 44.83174399113205, 228.0712120751272 44.781807750220565, 0 42.444480119259744 M0 42.444480119259744 C-7.246021932753829e-16 42.44448011925975, -1.262093196823585e-15 42.44448011925975, 0 42.44448011925976 M0 42.444480119259744 C5.886004076468724e-16 42.444480119259744, -3.997961657515676e-16 42.44448011925975, 0 42.44448011925976 M36.21901182651847 53.14239082804209 C42.01969648949399 50.18962873224816, 47.41211670586652 56.79974231897838, 46.89528344514759 58.23988845207267 M36.21901182651847 53.14239082804209 C38.9036250467465 53.70501586822508, 45.76455744803695 53.26680762819931, 46.89528344514759 58.23988845207267 M46.89528344514759 58.23988845207267 C45.26154396928379 59.72144196431621, 41.35992405237175 61.76095984102852, 36.21901182651847 63.3420908490002 M46.89528344514759 58.23988845207267 C47.429842406497315 58.65530469838998, 41.94796052746951 62.36964928502842, 36.21901182651847 63.3420908490002 M36.21901182651847 63.3420908490002 C31.8105549306347 63.27581221582062, 27.443881455373056 58.1455489496468, 25.542740207889338 58.23988845207267 M36.21901182651847 63.3420908490002 C27.231200390143226 61.95278815175101, 25.349284751044625 58.56803431187294, 25.542740207889338 58.23988845207267 M25.542740207889338 58.23988845207267 C28.245174868692672 57.32923764764316, 32.80493441001638 54.01216773395143, 36.21901182651847 53.142390828042096 M25.542740207889338 58.23988845207267 C25.892882774080178 52.03753860793993, 30.400588895158236 56.04982001660108, 36.21901182651847 53.142390828042096 M36.21901182651847 53.142390828042096 C36.21901182651847 53.142390828042096, 36.21901182651847 53.142390828042096, 36.21901182651847 53.14239082804209 M36.21901182651847 53.142390828042096 C36.21901182651847 53.142390828042096, 36.21901182651847 53.14239082804209, 36.21901182651847 53.14239082804209 M481.9229111880702 53.14239082804209 C486.7829296821175 51.292988401695105, 491.3906199409095 56.20331961690433, 492.59918280669933 58.23988845207267 M481.9229111880702 53.14239082804209 C489.29923481931036 55.45826583681344, 494.09769053793786 57.30810877285882, 492.59918280669933 58.23988845207267 M492.59918280669933 58.23988845207267 C491.7024466870539 61.610449979710424, 489.3697345078737 64.39537591458924, 481.9229111880702 63.3420908490002 M492.59918280669933 58.23988845207267 C495.31677164469846 58.89048044059894, 489.320112057617 60.670079572449175, 481.9229111880702 63.3420908490002 M481.9229111880702 63.3420908490002 C478.44524045480125 65.2546677959121, 468.485487412584 58.58062801759228, 471.246639569441 58.23988845207267 M481.9229111880702 63.3420908490002 C474.89204186741904 64.50565626914307, 473.4500787448762 59.86882909361743, 471.246639569441 58.23988845207267 M471.246639569441 58.23988845207267 C468.5272564805057 54.7646400111819, 474.81632415018635 54.880234015031675, 481.9229111880702 53.142390828042096 M471.246639569441 58.23988845207267 C469.7883542638682 56.215740702077596, 475.09777437611143 50.76408964423179, 481.9229111880702 53.142390828042096 M481.9229111880702 53.142390828042096 C481.9229111880702 53.142390828042096, 481.9229111880702 53.142390828042096, 481.9229111880702 53.14239082804209 M481.9229111880702 53.142390828042096 C481.9229111880702 53.142390828042096, 481.9229111880702 53.14239082804209, 481.9229111880702 53.14239082804209 M36.21901182651848 184.27926864356496 C39.258350078477655 185.61948639267115, 45.30920709169935 187.97331052853875, 46.89528344514761 189.3814710404925 M36.21901182651848 184.27926864356496 C39.251900026430505 182.6690240247733, 45.54024629442486 189.4666652918622, 46.89528344514761 189.3814710404925 M46.89528344514761 189.3814710404925 C48.054158597679816 189.5781213646725, 44.11590711824194 193.7108465694447, 36.21901182651848 194.47896866452308 M46.89528344514761 189.3814710404925 C45.37142054290325 194.82947924514005, 40.5121551672981 194.70042255922192, 36.21901182651848 194.47896866452308 M36.21901182651848 194.47896866452308 C32.84850966707931 192.7713589631577, 28.218886269916826 191.12650546487126, 25.542740207889356 189.3814710404925 M36.21901182651848 194.47896866452308 C32.686513486282315 196.45371571137542, 26.26147948732511 193.14370298017454, 25.542740207889356 189.3814710404925 M25.542740207889356 189.3814710404925 C28.057793769549633 183.8121530099135, 32.59703502959751 186.39248964303164, 36.21901182651848 184.27926864356496 M25.542740207889356 189.3814710404925 C23.30155762069119 187.63701146401613, 32.4394730186294 183.0166582016832, 36.21901182651848 184.27926864356496 M36.21901182651848 184.27926864356496 C36.21901182651848 184.27926864356496, 36.21901182651848 184.27926864356496, 36.21901182651848 184.27926864356496 M36.21901182651848 184.27926864356496 C36.21901182651848 184.27926864356496, 36.21901182651848 184.27926864356496, 36.21901182651848 184.27926864356496 M481.9229111880702 184.27926864356496 C488.9009034157545 186.3855486225429, 491.60300459248947 186.94638970329575, 492.59918280669933 189.3814710404925 M481.9229111880702 184.27926864356496 C486.6863707876113 187.68105552183454, 492.3165402997006 184.3285124913618, 492.59918280669933 189.3814710404925 M492.59918280669933 189.3814710404925 C490.91124669447817 195.15156045611653, 485.29818957386595 192.74118053546147, 481.9229111880702 194.47896866452308 M492.59918280669933 189.3814710404925 C490.2138245392525 188.98670555879067, 487.18744075735157 192.08505856945152, 481.9229111880702 194.47896866452308 M481.9229111880702 194.47896866452308 C475.21749580464916 193.17512413492398, 470.07139196162484 190.5026684408978, 471.246639569441 189.3814710404925 M481.9229111880702 194.47896866452308 C479.2678809912376 193.61846594317788, 473.1238181855939 194.5689256526966, 471.246639569441 189.3814710404925 M471.246639569441 189.3814710404925 C471.17354122914094 189.13169348075203, 475.8390022386395 182.46555584781794, 481.9229111880702 184.27926864356496 M471.246639569441 189.3814710404925 C470.13104390768984 183.34348971553297, 473.9550513485511 185.47214038806027, 481.9229111880702 184.27926864356496 M481.9229111880702 184.27926864356496 C481.9229111880702 184.27926864356496, 481.9229111880702 184.27926864356496, 481.9229111880702 184.27926864356496 M481.9229111880702 184.27926864356496 C481.9229111880702 184.27926864356496, 481.9229111880702 184.27926864356496, 481.9229111880702 184.27926864356496" stroke="#000000" stroke-width="2" fill="none" vector-effect="non-scaling-stroke" data-shape-part="outline" stroke-opacity="1" fill-opacity="0.24"></path></g></g><g transform="translate(339.21231799680817, 207.31256123748227) rotate(0)"><text transform="translate(0, 87)" style="font-size: 24px; font-family: &quot;Comic Sans MS&quot;; fill: rgb(17, 17, 17); opacity: 1; stroke-width: 0; font-style: normal; font-weight: normal; text-decoration: none;"></text></g></g><g transform="translate(462.1350869833157, 291.21639512893313) rotate(0)"><text transform="translate(0, 0)" style="font-size: 33px; font-family: Roboto; fill: rgb(17, 17, 17); opacity: 1; stroke-width: 0; font-style: normal; font-weight: bold; text-decoration: none;"><tspan dominant-baseline="text-before-edge" x="0" y="0">My Daily Quotes</tspan></text></g><g><g transform="translate(133.2297060816747, 291.21639512893313)  rotate(0)  "><g><path d="M1.7405550023540854 130.71647332152136 L0.46498463954776525 629.4862621638372 L891.6013256390443 628.2227676424577 L891.4572841306081 129.36834205230477 L0.8204882880672812 130.17610798319586 M60.616111544636695 161.40795149374065 L75.05776616077956 167.74238978503075 L79.139862423235 172.73517461979094 L79.30728871477103 181.02807136651424 L79.67921214501484 185.4235551365167 L74.30659920948324 188.68465027817427 L62.977645842102966 192.3626647050723 L46.24819408452494 187.40374258764922 L45.40748441590007 186.20249903281035 L41.44390808265512 179.48588540431408 L45.07542376780687 170.64413663112822 L49.554987643482534 169.84053687928048 L61.92807402995011 161.14908005762157 M828.6447982393087 165.28037618565617 L841.3847650426464 169.44240255830613 L842.9711366270624 171.30925374591055 L845.1954810628245 181.09789042946247 L842.42989514706 186.77973303277793 L836.8845250627857 190.88050121673285 L827.4129964314283 196.3079482074126 L813.5428309821389 187.95841348775565 L812.4411988815682 185.77045747716727 L806.880671063643 180.60872685190586 L812.2696358988803 171.59490185343924 L814.4577292469071 169.2174619602951 L827.9933551154912 165.4693463938242 M59.70641764786624 566.4155718385394 L75.65669179933846 567.6922696226761 L81.84660940568077 576.5098747359524 L79.19897306812265 581.3796560294535 L81.12381482630357 589.1515519140552 L75.77546610575257 592.8419046885737 L59.857537058857915 596.433300034002 L51.64341870379674 593.5017204172381 L44.95240049624623 587.2377238987277 L44.12578790109463 583.3627653248217 L44.047404531371 576.4395429240475 L48.948571489214764 568.0096588128731 L61.665177313355436 563.7033846675571 M827.2339275084317 563.9810373782333 L838.7584537885051 571.9822348648236 L843.2735085332142 577.4946460770378 L847.6110740312884 583.0422351784613 L843.9966120098672 587.0813858924697 L841.3061335819798 590.8286358303793 L823.8711785875142 596.0605159856831 L815.499317732148 592.7407041377791 L812.4502701590579 588.041203659613 L809.4120210206323 584.2586647100355 L812.5213236174004 574.1247308300743 L813.1686787390015 567.9436994486973 L828.2554046116651 563.702287554663" stroke="none" stroke-width="0" fill="#616161" vector-effect="non-scaling-stroke" data-shape-part="fill" stroke-opacity="0.24" fill-opacity="0.24"></path><path d="M0 130.38595468746283 C1.241532604389225 251.74654033026496, 1.1811699429455504 371.01977530667716, 0 630.2127265536606 M0 130.38595468746283 C1.6300457638390387 277.6289008523003, 1.8614973452997 424.82266961039863, 0 630.2127265536606 M0 630.2127265536606 C194.9335738495846 625.9564840124657, 386.9013439206251 627.6989131854584, 888.7638868032818 630.2127265536606 M0 630.2127265536606 C240.9229931097189 633.7437097348402, 483.2834607416187 634.2421483732888, 888.7638868032818 630.2127265536606 M888.7638868032818 630.2127265536606 C890.579789686555 445.9948139701142, 892.2104980120741 260.93089920950797, 888.7638868032818 130.38595468746277 M888.7638868032818 630.2127265536606 C886.2407641787592 511.95275002969674, 886.161114659328 393.1393118167192, 888.7638868032818 130.38595468746277 M888.7638868032818 130.38595468746277 C610.9577591952792 131.1721816400859, 332.4110442689605 132.22625098031494, 0 130.38595468746277 M888.7638868032818 130.38595468746277 C584.9128692813481 135.74974073323042, 280.35077311282157 135.39874966892035, 0 130.38595468746277 M0 130.38595468746277 C8.476045304604729e-15 130.3859546874628, 5.891716527016105e-15 130.3859546874628, 0 130.38595468746283 M0 130.38595468746277 C3.5224864086346206e-15 130.38595468746277, 1.4027865004823812e-15 130.3859546874628, 0 130.38595468746283 M62.126373215323 163.24905719234852 C72.92856716150803 160.52960210749796, 77.91083601576477 169.80591515054616, 80.43935310290462 178.90815096281764 M62.126373215323 163.24905719234852 C70.46704846467276 164.86058717244222, 78.79090593977101 169.26121685568864, 80.43935310290462 178.90815096281764 M80.43935310290462 178.90815096281764 C81.2517578472031 188.63046022419672, 70.02728367547658 197.10252547774414, 62.12637321532299 194.58169740897114 M80.43935310290462 178.90815096281764 C78.43045294388399 187.32147210765484, 75.26191008251314 195.8538195394254, 62.12637321532299 194.58169740897114 M62.12637321532299 194.58169740897114 C51.54760493708743 193.19030252609352, 45.14783398191366 184.87430982951864, 43.81339332774137 178.90815096281764 M62.12637321532299 194.58169740897114 C50.45915069862237 193.51575757938386, 45.988711360505924 189.36625185686952, 43.81339332774137 178.90815096281764 M43.81339332774137 178.90815096281764 C45.63228761266838 170.5051040088168, 51.02616611658335 162.57138696024114, 62.12637321532299 163.24905719234854 M43.81339332774137 178.90815096281764 C44.366488879145265 172.23443811450775, 53.312781924006714 165.6030270936425, 62.12637321532299 163.24905719234854 M62.12637321532299 163.24905719234854 C62.12637321532299 163.24905719234854, 62.12637321532299 163.24905719234854, 62.126373215323 163.24905719234852 M62.12637321532299 163.24905719234854 C62.12637321532299 163.24905719234854, 62.126373215323 163.24905719234852, 62.126373215323 163.24905719234852 M826.641068643506 163.24905719234852 C837.992892009733 165.69133695671252, 842.5284378796758 169.20247418036374, 844.9540485310877 178.90815096281764 M826.641068643506 163.24905719234852 C836.4778114659858 166.1384097369845, 845.9786143890059 168.2727560511666, 844.9540485310877 178.90815096281764 M844.9540485310877 178.90815096281764 C845.3390662464535 186.23118662004214, 837.2058329576005 191.99190906200508, 826.641068643506 194.58169740897114 M844.9540485310877 178.90815096281764 C844.5953936109075 185.8093961812914, 838.559564019724 194.64400882798196, 826.641068643506 194.58169740897114 M826.641068643506 194.58169740897114 C818.5206898561133 194.1094149998198, 806.1407486510004 188.99528749947294, 808.3280887559243 178.90815096281764 M826.641068643506 194.58169740897114 C814.643918445419 192.77664937305215, 806.0111789497554 184.4362386994422, 808.3280887559243 178.90815096281764 M808.3280887559243 178.90815096281764 C807.9164420202195 170.05949709167393, 815.6493641413831 162.1002282471388, 826.641068643506 163.24905719234854 M808.3280887559243 178.90815096281764 C805.0836081197772 171.73428883914525, 818.2218063293574 163.15708395116883, 826.641068643506 163.24905719234854 M826.641068643506 163.24905719234854 C826.641068643506 163.24905719234854, 826.641068643506 163.24905719234852, 826.641068643506 163.24905719234852 M826.641068643506 163.24905719234854 C826.641068643506 163.24905719234854, 826.641068643506 163.24905719234852, 826.641068643506 163.24905719234852 M62.12637321532302 566.0907685448568 C69.86752013067871 566.6613558534175, 81.90249259961973 575.7896196085519, 80.43935310290465 581.7643149910103 M62.12637321532302 566.0907685448568 C69.11752078544505 568.0429620792265, 78.61661862983573 575.4672241647753, 80.43935310290465 581.7643149910103 M80.43935310290465 581.7643149910103 C82.1134880231062 590.1801227052738, 71.20123895043893 596.8481155121159, 62.12637321532303 597.4234087614794 M80.43935310290465 581.7643149910103 C77.81601135505569 588.2838792389766, 75.13287732000849 600.3638530041017, 62.12637321532303 597.4234087614794 M62.12637321532303 597.4234087614794 C51.5738534384847 598.1646923804116, 42.02707906674517 587.6425449271728, 43.8133933277414 581.7643149910103 M62.12637321532303 597.4234087614794 C49.19990545958023 600.8218026827016, 41.39848090481868 588.3806705734269, 43.8133933277414 581.7643149910103 M43.8133933277414 581.7643149910103 C41.126235195798046 573.8212307232923, 49.195131767522255 564.4628357592612, 62.12637321532303 566.0907685448568 M43.8133933277414 581.7643149910103 C42.31273988675251 572.4891677861127, 54.78509117200011 567.7932493095394, 62.12637321532303 566.0907685448568 M62.12637321532303 566.0907685448568 C62.12637321532303 566.0907685448568, 62.12637321532302 566.0907685448568, 62.12637321532302 566.0907685448568 M62.12637321532303 566.0907685448568 C62.12637321532303 566.0907685448568, 62.12637321532302 566.0907685448568, 62.12637321532302 566.0907685448568 M826.641068643506 566.0907685448568 C833.8927500539769 567.6719695631057, 843.7515683862603 573.6639027136869, 844.9540485310877 581.7643149910103 M826.641068643506 566.0907685448568 C835.3799493789517 566.5705854212042, 846.9376546585688 571.2343533222588, 844.9540485310877 581.7643149910103 M844.9540485310877 581.7643149910103 C844.7947581380548 588.9068275709678, 836.4865062959174 599.1251352810692, 826.641068643506 597.4234087614794 M844.9540485310877 581.7643149910103 C842.3551640009915 588.9582373908297, 837.3899208484364 599.8489999304451, 826.641068643506 597.4234087614794 M826.641068643506 597.4234087614794 C817.2427067138337 594.5181329333615, 805.4707059398114 588.0923208911945, 808.3280887559243 581.7643149910103 M826.641068643506 597.4234087614794 C817.3204940720078 594.5916993553676, 809.0954625970039 592.7209202295677, 808.3280887559243 581.7643149910103 M808.3280887559243 581.7643149910103 C808.6767146002974 570.149551494748, 818.0817861369266 565.2928874496013, 826.641068643506 566.0907685448568 M808.3280887559243 581.7643149910103 C806.1663513797342 573.8065316905293, 819.3728166920054 567.1288116564151, 826.641068643506 566.0907685448568 M826.641068643506 566.0907685448568 C826.641068643506 566.0907685448568, 826.641068643506 566.0907685448568, 826.641068643506 566.0907685448568 M826.641068643506 566.0907685448568 C826.641068643506 566.0907685448568, 826.641068643506 566.0907685448568, 826.641068643506 566.0907685448568" stroke="#000000" stroke-width="2" fill="none" vector-effect="non-scaling-stroke" data-shape-part="outline" stroke-opacity="1" fill-opacity="0.24"></path></g></g><g transform="translate(177.6679004218388, 367.28310925731705) rotate(0)"><text transform="translate(0, 292)" style="font-size: 24px; font-family: &quot;Comic Sans MS&quot;; fill: rgb(17, 17, 17); opacity: 1; stroke-width: 0; font-style: normal; font-weight: normal; text-decoration: none;"></text></g></g><g transform="translate(452.1116494833156, 518.1293490575537) rotate(0)"><text transform="translate(0, 0)" style="font-size: 43px; font-family: Roboto; fill: rgb(17, 17, 17); opacity: 1; stroke-width: 0; font-style: normal; font-weight: bold; text-decoration: none;"><tspan dominant-baseline="text-before-edge" x="0" y="0">Energizer#1</tspan></text></g><g transform="translate(447.1460865781071, 993.6477907405448) rotate(0)"><text transform="translate(0, 0)" style="font-size: 24px; font-family: Roboto; fill: rgb(17, 17, 17); opacity: 1; stroke-width: 0; font-style: normal; font-weight: bold; text-decoration: none;"><tspan dominant-baseline="text-before-edge" x="0" y="0">©2024 Quote Vitamins</tspan></text></g><g transform="translate(433.027024239175, 1023.5025926381094) rotate(0)"><text transform="translate(0, 0)" style="font-size: 17px; font-family: Roboto; fill: rgb(17, 17, 17); opacity: 1; stroke-width: 0; font-style: normal; font-weight: normal; text-decoration: none;"><tspan dominant-baseline="text-before-edge" x="0" y="0">Last Modified: dd/mm/yyyy hh:mm:ss</tspan></text></g><g transform="translate(382.4926700937628, 670.6241389161921) rotate(0)"><text transform="translate(0, 0)" style="font-size: 35px; font-family: Roboto; fill: rgb(17, 17, 17); opacity: 1; stroke-width: 0; font-style: normal; font-weight: bold; text-decoration: none;"><tspan dominant-baseline="text-before-edge" x="40.24739456176758" y="0">Actual Quote from </tspan><tspan dominant-baseline="text-before-edge" x="336.73175048828125" y="0">
</tspan><tspan dominant-baseline="text-before-edge" x="26.497394561767578" y="42.5">Zen Quotes API here</tspan></text></g><g transform="translate(152.5785463977453, 993.6477907405448) rotate(0)"><text transform="translate(0, 0)" style="font-size: 24px; font-family: Roboto; fill: rgb(17, 17, 17); opacity: 1; stroke-width: 0; font-style: normal; font-weight: normal; text-decoration: none;"><tspan dominant-baseline="text-before-edge" x="0" y="0">Site Plan link</tspan></text></g><g transform="translate(827.4024521378863, 986.8359285145743) rotate(0)"><text transform="translate(0, 0)" style="font-size: 24px; font-family: Roboto; fill: rgb(17, 17, 17); opacity: 1; stroke-width: 0; font-style: normal; font-weight: normal; text-decoration: none;"><tspan dominant-baseline="text-before-edge" x="0" y="0">Social Media links</tspan><tspan dominant-baseline="text-before-edge" x="192.5911407470703" y="0">
</tspan><tspan dominant-baseline="text-before-edge" x="0" y="28.333332061767578">or icons</tspan></text></g><g transform="translate(509.27629745457205, 258.02707963778755) rotate(0)"><text transform="translate(0, 0)" style="font-size: 24px; font-family: Roboto; fill: rgb(17, 17, 17); opacity: 1; stroke-width: 0; font-style: normal; font-weight: bold; text-decoration: none;"><tspan dominant-baseline="text-before-edge" x="0" y="0">Current Date</tspan></text></g><g><g transform="translate(312.1119239761107, 128.80928080436934) rotate(0) scale(5.19333251953125 0.6099999237060547)  "><g><rect fill="#8ED1FC" stroke-width="2" stroke="#000000" x="0" y="0" width="100" height="100" vector-effect="non-scaling-stroke" stroke-opacity="1" fill-opacity="1" transform="scale(1 1)" data-target_data=""></rect></g></g><g transform="translate(338.0785865737669, 131.85928042289962) rotate(0)"><text transform="translate(0, 15)" style="font-size: 24px; font-family: &quot;Comic Sans MS&quot;; fill: rgb(17, 17, 17); opacity: 1; stroke-width: 0; font-style: normal; font-weight: normal; text-decoration: none;"></text></g></g><g><g transform="translate(880.0505277866025, 16.439786863100785) rotate(0) scale(1.2827643912179156 0.7573676213690668)  "><g><path fill="#ABB8C3" stroke="#000000" stroke-linecap="round" stroke-linejoin="round" stroke-miterlimit="10" d="M 85 62.38 L 15 62.38 C 6.75 62.38 0 55.63 0 47.38 L 0 15 C 0 6.75 6.75 0 15 0 L 85 0 C 93.25 0 100 6.75 100 15 L 100 47.38 C 100 55.63 93.25 62.38 85 62.38 Z" stroke-width="2" vector-effect="non-scaling-stroke" stroke-opacity="1" fill-opacity="1" transform="scale(1 1)" data-target_data=""></path></g></g><g transform="translate(886.4643497426921, 20.226625062546383) rotate(0)"><text transform="translate(0, 8)" style="font-size: 24px; font-family: &quot;Comic Sans MS&quot;; fill: rgb(17, 17, 17); opacity: 1; stroke-width: 0; font-style: normal; font-weight: normal; text-decoration: none;"></text></g></g><g transform="translate(905.3121086696503, 26.63117312916791) rotate(0)"><text transform="translate(0, 0)" style="font-size: 20px; font-family: Roboto; fill: rgb(17, 17, 17); opacity: 1; stroke-width: 0; font-style: normal; font-weight: normal; text-decoration: none;"><tspan dominant-baseline="text-before-edge" x="0" y="0">Sign Up</tspan></text></g><g transform="translate(655.0587021378863, 27.986324212199424) rotate(0)"><text transform="translate(0, 0)" style="font-size: 24px; font-family: Roboto; fill: rgb(17, 17, 17); opacity: 1; stroke-width: 0; font-style: normal; font-weight: normal; text-decoration: none;"><tspan dominant-baseline="text-before-edge" x="0" y="0">My Daily Quotes</tspan></text></g></svg>