<svg width="103" height="120" viewBox="237 231 103 120" xmlns="http://www.w3.org/2000/svg" xmlns:xlink="http://www.w3.org/1999/xlink"><g><g transform="translate(247.07668945312503, 240.64736022949216) rotate(0) scale(1.0000000293050813 1)  "><g><path d="m44.51 0.1c-1.61 0.54-1.93 1.25-2.73 6.02-2.78 16.62-9.2 28.59-19.44 36.28-3.95 2.97-10.14 5.65-15.02 6.52-1.21 0.22-2.76 0.49-3.44 0.62-2.08 0.38-3.88 2.02-3.88 3.53 0 1.37 0.9 2.18 3.92 3.52 1.54 0.68 3.9 1.63 5.2 2.08 8.28 2.88 14.8 7.54 22 15.72 3.19 3.63 4.73 5.67 6.63 8.83 1.65 2.73 4.78 9.1 5.78 11.75 1.5 3.99 2.08 4.77 3.73 5.01 1.07 0.16 2.32-0.54 2.86-1.59 0.28-0.54 0.54-2.14 0.8-4.84 1.05-10.99 3.32-17.86 8.45-25.56 4.42-6.64 11.05-11.87 19.07-15.04 2.21-0.87 3.08-1.35 3.86-2.12 0.89-0.88 1.01-1.12 1.01-2.04 0-2.16-0.95-2.71-5.53-3.17-7.03-0.71-12.9-2.6-16.88-5.45-1.73-1.24-4.39-3.99-5.9-6.1-3.7-5.2-5.02-9.83-5.75-20.2-0.49-7-0.99-11.04-1.48-12.03-0.66-1.34-2.13-2.12-3.26-1.74z" fill="#616161" stroke="#FFB94A" stroke-width="10" vector-effect="non-scaling-stroke" stroke-opacity="0.26" fill-opacity="1" transform="scale(1 1)" data-target_data=""></path></g></g></g><defs><style>@import url("https://www.dafontfree.net/embed/Y29taWMtc2Fucy1tcy1yZWd1bGFyJmRhdGEvNDAvYy8xMDA5MzQvQ09NSUMuVFRG");text {white-space: pre;};
</style></defs></svg>